<?xml version="1.0" standalone="no"?>
<svg xmlns="http://www.w3.org/2000/svg" width="24" height="24"><rect width="24" height="24" opacity="0"></rect><g><path d="M6.29 5.83Q5.86 5.59 5.38 5.69Q4.9 5.78 4.57 6.14Q4.25 6.5 4.25 7.01L4.25 16.97Q4.25 17.47 4.57 17.84Q4.9 18.22 5.36 18.31Q5.83 18.41 6.29 18.17L14.9 13.18Q15.34 12.91 15.5 12.46Q15.67 12 15.5 11.54Q15.34 11.09 14.9 10.82L6.29 5.83ZM18.74 17.71Q19.15 17.71 19.45 17.42Q19.75 17.14 19.75 16.7L19.75 7.18Q19.75 6.77 19.45 6.47Q19.15 6.17 18.74 6.17Q18.34 6.17 18.05 6.47Q17.76 6.77 17.76 7.18L17.76 16.7Q17.76 17.14 18.05 17.42Q18.34 17.71 18.74 17.71Z" fill="rgba(0,0,0,0.9019607843137255)"></path></g></svg>