<?xml version="1.0" standalone="no"?>
<svg xmlns="http://www.w3.org/2000/svg" width="24" height="24"><rect width="24" height="24" opacity="0"></rect><g><path d="M18.72 9.62L21.7 9.62Q21.84 9.62 21.95 9.52Q22.06 9.41 22.06 9.26Q22.06 9.12 21.96 9.02L19.08 6.19Q18.98 6.1 18.84 6.1Q18.7 6.1 18.59 6.19Q18.48 6.29 18.48 6.43L18.48 8.11L2.69 8.11Q2.38 8.11 2.16 8.33Q1.94 8.54 1.94 8.86Q1.94 9.17 2.16 9.4Q2.38 9.62 2.69 9.62ZM18.74 14.38L2.69 14.38Q2.38 14.38 2.16 14.59Q1.94 14.81 1.94 15.12Q1.94 15.43 2.16 15.65Q2.38 15.86 2.69 15.86L18.48 15.86L18.48 17.54Q18.48 17.69 18.59 17.78Q18.7 17.88 18.84 17.88Q18.98 17.88 19.08 17.78L21.96 14.98Q22.08 14.88 22.08 14.74Q22.08 14.59 21.97 14.48Q21.86 14.38 21.72 14.38Z" fill="rgba(0,0,0,0.9019607843137255)"></path></g></svg>