<?xml version="1.0" standalone="no"?>
<svg xmlns="http://www.w3.org/2000/svg" width="24" height="24"><rect width="24" height="24" opacity="0"></rect><g mask="url(#hms_mask_0)"><path d="M17.28 1.34Q14.69 0.55 11.46 1.48Q8.23 2.4 4.99 5.52Q1.85 8.52 1.25 11.17Q0.65 13.82 1.42 16.08Q1.87 17.35 3.32 18.79Q4.78 20.23 7.12 21.38Q9.46 22.54 12.41 22.87Q15.65 23.26 17.87 22.6Q20.09 21.94 21.37 20.05Q22.66 18.17 22.94 14.88Q23.23 11.66 22.46 8.72Q21.7 5.78 20.28 3.8Q18.86 1.82 17.28 1.34Z" fill="rgba(0,0,0,0.9019607843137255)"></path></g><defs><mask id="hms_mask_0"><rect width="24" height="24" fill="#ffffff"></rect><g><path d="M10.15 16.34Q9.84 16.34 9.61 16.13Q9.38 15.91 9.38 15.6L9.38 8.78Q9.38 8.47 9.61 8.26Q9.84 8.04 10.15 8.04Q10.46 8.04 10.68 8.26Q10.9 8.47 10.9 8.78L10.9 15.6Q10.9 15.91 10.68 16.13Q10.46 16.34 10.15 16.34ZM14.71 16.34Q14.4 16.34 14.18 16.13Q13.97 15.91 13.97 15.6L13.97 8.78Q13.97 8.47 14.18 8.26Q14.4 8.04 14.71 8.04Q15.02 8.04 15.24 8.26Q15.46 8.47 15.46 8.78L15.46 15.6Q15.46 15.91 15.24 16.13Q15.02 16.34 14.71 16.34Z" fill="#000000"></path></g></mask></defs></svg>