<?xml version="1.0" standalone="no"?>
<svg xmlns="http://www.w3.org/2000/svg" width="24" height="24"><rect width="24" height="24" opacity="0"></rect><g mask="url(#hms_mask_0)"><path d="M12 1.01Q9 1.01 6.48 2.48Q3.96 3.96 2.48 6.48Q1.01 9 1.01 12Q1.01 15 2.48 17.52Q3.96 20.04 6.48 21.52Q9 22.99 12 22.99Q14.98 22.99 17.51 21.52Q20.04 20.04 21.52 17.51Q22.99 14.98 22.99 12Q22.99 9.02 21.52 6.49Q20.04 3.96 17.51 2.48Q14.98 1.01 12 1.01Z" fill="rgba(0,0,0,0.9019607843137255)"></path></g><defs><mask id="hms_mask_0"><rect width="24" height="24" fill="#ffffff"></rect><g><path d="M16.58 11.16Q16.9 11.35 17.02 11.69Q17.14 12.02 17.02 12.35Q16.9 12.67 16.58 12.86L10.44 16.39Q10.13 16.58 9.79 16.51Q9.46 16.44 9.23 16.18Q9 15.91 9 15.55L9 8.47Q9 8.11 9.23 7.85Q9.46 7.58 9.79 7.51Q10.13 7.44 10.44 7.63L16.58 11.16Z" fill="#000000"></path></g></mask></defs></svg>