<?xml version="1.0" standalone="no"?>
<svg xmlns="http://www.w3.org/2000/svg" width="24" height="24"><rect width="24" height="24" opacity="0"></rect><g><path d="M9.07 10.82Q8.64 11.09 8.47 11.54Q8.3 12 8.47 12.46Q8.64 12.91 9.07 13.18L17.71 18.17Q18.17 18.41 18.64 18.31Q19.1 18.22 19.43 17.84Q19.75 17.47 19.75 16.97L19.75 7.01Q19.75 6.5 19.43 6.14Q19.1 5.78 18.62 5.69Q18.14 5.59 17.71 5.83L9.07 10.82ZM5.26 17.71Q5.66 17.71 5.95 17.42Q6.24 17.14 6.24 16.7L6.24 7.18Q6.24 6.77 5.95 6.47Q5.66 6.17 5.26 6.17Q4.85 6.17 4.55 6.47Q4.25 6.77 4.25 7.18L4.25 16.7Q4.25 17.14 4.55 17.42Q4.85 17.71 5.26 17.71Z" fill="rgba(0,0,0,0.9019607843137255)"></path></g></svg>