<?xml version="1.0" standalone="no"?>
<svg xmlns="http://www.w3.org/2000/svg" width="24" height="24"><rect width="24" height="24" opacity="0"></rect><g><path d="M20.86 15.72Q20.18 15.79 18.95 15.78Q17.71 15.77 16.46 15.46Q15.84 15.29 14.99 14.4Q14.14 13.51 13.01 12.05L12.94 11.95Q14.02 10.54 14.9 9.64Q15.79 8.74 16.54 8.47Q17.21 8.23 18.58 8.21Q19.94 8.18 20.88 8.26Q21.19 8.28 21.42 8.06Q21.65 7.85 21.67 7.54Q21.7 7.22 21.46 6.98L18.6 4.15Q18.48 4.06 18.34 4.06Q18.19 4.06 18.1 4.16Q18 4.27 18 4.42L18 6.74Q16.75 6.82 16.03 7.06Q15.07 7.39 14.11 8.33Q13.15 9.26 12 10.73Q10.82 9.24 9.86 8.32Q8.9 7.39 7.94 7.06Q6.55 6.55 3 6.77L3 6.77Q2.69 6.79 2.48 7.02Q2.28 7.25 2.3 7.56Q2.33 7.87 2.56 8.08Q2.78 8.28 3.12 8.26Q4.22 8.18 5.51 8.21Q6.79 8.23 7.44 8.47Q8.18 8.74 9.05 9.62Q9.91 10.51 11.04 11.95L10.78 12.29Q9.7 13.68 8.9 14.51Q8.11 15.34 7.51 15.46Q6.26 15.72 4.93 15.76Q3.6 15.79 3.12 15.74L3.1 15.74Q2.81 15.7 2.57 15.9Q2.33 16.1 2.28 16.42Q2.23 16.73 2.44 16.97Q2.64 17.21 2.95 17.23Q4.2 17.28 5.6 17.21Q7.01 17.14 7.87 16.92Q8.81 16.68 9.76 15.77Q10.7 14.86 12 13.2Q13.27 14.86 14.22 15.78Q15.17 16.7 16.1 16.92Q17.06 17.14 18 17.21L18 19.61Q18 19.75 18.1 19.85Q18.19 19.94 18.34 19.94Q18.48 19.94 18.6 19.85L21.48 17.04Q21.72 16.78 21.7 16.44Q21.67 16.1 21.44 15.9Q21.22 15.7 20.88 15.72Z" fill="rgba(0,0,0,0.9019607843137255)"></path></g></svg>