<?xml version="1.0" standalone="no"?>
<svg xmlns="http://www.w3.org/2000/svg" width="24" height="24"><rect width="24" height="24" opacity="0"></rect><g><path d="M16.66 7.27L19.63 7.27Q19.78 7.27 19.88 7.16Q19.99 7.06 19.99 6.91Q19.99 6.77 19.87 6.65L16.99 3.84Q16.9 3.72 16.75 3.72Q16.61 3.72 16.5 3.83Q16.39 3.94 16.39 4.08L16.39 5.76L7.32 5.76Q5.62 5.76 4.18 6.6Q2.74 7.44 1.9 8.88Q1.06 10.32 1.06 12Q1.06 13.63 1.85 15.05Q2.02 15.36 2.33 15.42Q2.64 15.48 2.88 15.34Q3.14 15.17 3.23 14.87Q3.31 14.57 3.17 14.3Q2.57 13.27 2.57 12Q2.57 10.7 3.2 9.62Q3.84 8.54 4.93 7.91Q6.02 7.27 7.32 7.27ZM22.15 8.95Q22.01 8.69 21.7 8.6Q21.38 8.52 21.12 8.66Q20.86 8.81 20.77 9.11Q20.69 9.41 20.83 9.67Q21.43 10.73 21.43 11.98Q21.43 13.27 20.8 14.36Q20.16 15.46 19.07 16.09Q17.98 16.73 16.68 16.73L7.34 16.73L4.37 16.73Q4.22 16.73 4.13 16.84Q4.03 16.94 4.03 17.09Q4.03 17.23 4.13 17.33L7.01 20.16Q7.1 20.26 7.25 20.26Q7.39 20.26 7.5 20.15Q7.61 20.04 7.61 19.9L7.61 18.22L16.68 18.22Q18.38 18.22 19.82 17.38Q21.26 16.54 22.1 15.1Q22.94 13.66 22.94 11.98Q22.94 10.32 22.15 8.95Z" fill="rgba(0,0,0,0.9019607843137255)"></path></g></svg>