<?xml version="1.0" standalone="no"?>
<svg xmlns="http://www.w3.org/2000/svg" width="24" height="24"><rect width="24" height="24" opacity="0"></rect><g><path d="M17.95 21.07Q18.43 20.83 18.72 20.38Q19.01 19.92 19.01 19.39L19.01 4.58Q19.01 4.06 18.72 3.61Q18.43 3.17 17.95 2.93Q17.45 2.69 16.93 2.76Q16.42 2.83 16.01 3.17L11.16 7.08L7.42 7.08Q6.74 7.08 6.19 7.4Q5.64 7.73 5.32 8.28Q4.99 8.83 4.99 9.48L4.99 14.52Q4.99 15.17 5.32 15.72Q5.64 16.27 6.2 16.6Q6.77 16.92 7.42 16.92L11.14 16.92L16.01 20.83Q16.39 21.14 16.93 21.22Q17.47 21.29 17.95 21.07ZM11.66 8.57L16.94 4.32Q17.14 4.15 17.26 4.14Q17.38 4.13 17.44 4.24Q17.5 4.34 17.5 4.58L17.5 19.39Q17.5 19.61 17.44 19.73Q17.38 19.85 17.26 19.85Q17.14 19.85 16.94 19.68L11.66 15.43L7.42 15.43Q7.03 15.43 6.77 15.17Q6.5 14.9 6.5 14.52L6.5 9.48Q6.5 9.1 6.77 8.83Q7.03 8.57 7.42 8.57Z" fill="rgba(0,0,0,0.9019607843137255)"></path></g></svg>